<?xml version="1.0" ?><svg data-name="Layer 1" id="Layer_1" viewBox="0 0 32 32" xmlns="http://www.w3.org/2000/svg"><path d="M15.99984,31.42309a.59985.59985,0,0,1-.6001-.59961c0-10.76758-3.456-14.22364-14.22363-14.22364a.59961.59961,0,1,1,0-1.19921c10.76758,0,14.22363-3.457,14.22363-14.22461a.6001.6001,0,0,1,1.2002,0c0,10.76757,3.45654,14.22461,14.22412,14.22461a.59961.59961,0,1,1,0,1.19921c-10.76758,0-14.22412,3.45606-14.22412,14.22364A.59985.59985,0,0,1,15.99984,31.42309ZM7.56722,16.00023c4.74463,1.07911,7.354,3.68848,8.43262,8.43262,1.07861-4.74414,3.68848-7.35351,8.43262-8.43262-4.74414-1.0791-7.354-3.68847-8.43262-8.43359C14.92123,12.31176,12.31185,14.92113,7.56722,16.00023Z"/></svg>