<svg xmlns="http://www.w3.org/2000/svg" height="20" viewBox="0 -960 960 960" width="20"><path d="M379.385-357q-90.667 0-155.334-64.167Q159.385-485.333 159.385-576q0-16.333 2.346-31.167 2.346-14.833 7.73-30.449 1.693-6.461 6.549-10.807 4.855-4.346 11.452-6.346 6.596-2 12.875.115 6.278 2.115 10.971 6.808l110.077 108.538L419.077-637 312.308-744.538q-4.804-4.804-6.864-11.471-2.06-6.667-.06-12.983 2-6.316 6.731-11.893 4.731-5.577 11.423-7.269 14.616-4.154 28.359-6Q365.641-796 379.385-796q91.666 0 155.833 65.167 64.167 65.166 64.167 156.02 0 27.428-6.039 49.621-6.038 22.192-17.115 42.961L768-289.923q21.308 21.103 21.308 49.892t-21.145 48.872q-21.146 20.082-49.27 19.582-28.124-.5-48.432-20.038L481.154-380.154q-22.308 10.308-48.518 16.731Q406.425-357 379.385-357Zm0-32q17.512 0 48.025-6.616 30.513-6.615 58.052-26.846l206.769 206.769q11.615 11.616 26.115 12 14.5.385 27.115-11.73 12.616-12.116 12.616-26.616t-12.616-27.115L537.692-475.692q17.693-25.539 23.693-54.039t6-45.269q0-79.922-65.577-142.961Q436.231-781 337.693-764l107.384 106.385q8.692 8.874 8.692 20.706 0 11.832-8.981 20.735L341.29-513.518q-8.982 8.903-20.087 8.903t-19.434-8.693L191.385-623.692q-17.692 109 46.038 171.846Q301.154-389 379.385-389Zm90.307-101.231Z"/></svg>