<svg xmlns="http://www.w3.org/2000/svg" height="20" viewBox="0 -960 960 960" width="20"><path d="M722.231-185q-97.154-9-189.885-55.654-92.731-46.653-169.885-124.192-77.154-77.539-122.807-169.385Q194-626.077 184-723.231q-2-21.33 12.285-37.049Q210.571-776 232-776h72.923q19.308 0 32.962 11.269 13.654 11.269 19.961 30.346L375.692-673q2.77 13.769-1.5 27.308-4.269 13.538-13.807 21.538l-87.77 81.846q24.616 45.693 52.924 84.539 28.307 38.846 61.045 72.138 33.878 33.862 74.031 62.823 40.154 28.962 88.154 53.577l90.539-89.077q8.769-9.538 18.461-11.884 9.692-2.347 23.462-.347l53.154 12.231q19.308 5 30.461 19.423Q776-324.462 776-304.385V-233q0 21.429-16.22 35.715Q743.561-183 722.231-185ZM258.846-573.846l80.769-74.616q3.846-3.077 5-8.461 1.154-5.385-.384-10l-17.93-64.769q-1.538-6.154-5.385-9.231Q317.07-744 310.917-744H228q-4.615 0-7.692 3.077t-3.077 7.692q1.154 38 12.846 78.116 11.692 40.115 28.769 81.269Zm324 319.384q36.639 17.321 78.473 25.314 41.835 7.994 71.912 10.686 4.615 0 7.692-3.076 3.077-3.077 3.077-7.693v-82.307q0-6.154-3.077-10-3.077-3.847-9.231-5.385l-55-12.154q-4.615-1.538-8.077-.384-3.461 1.153-7.307 5l-78.462 79.999Zm-324-319.384Zm324 319.384Z"/></svg>