<svg xmlns="http://www.w3.org/2000/svg" height="20" viewBox="0 -960 960 960" width="20"><path d="M297.231-480.184q0 6.723-4.6 11.453-4.6 4.731-11.4 4.731h-168q-6.8 0-11.4-4.547-4.6-4.547-4.6-11.269 0-6.723 4.6-11.453 4.6-4.731 11.4-4.731h168q6.8 0 11.4 4.547 4.6 4.547 4.6 11.269Zm53.923-130.662q-6.385 6.384-12.154 6.384t-12.374-6.604l-43.945-43.945q-5.835-5.835-6.22-10.989-.384-5.154 6-11.539 6.385-6.384 11.654-6.884 5.27-.5 11.874 6.324l43.945 44.505q5.835 6.055 6.72 11.209.884 5.154-5.5 11.539ZM464-678.769v-168q0-6.8 4.547-11.4 4.547-4.601 11.269-4.601 6.723 0 11.453 4.601 4.731 4.6 4.731 11.4v168q0 6.8-4.547 11.4-4.547 4.6-11.269 4.6-6.723 0-11.453-4.6-4.731-4.6-4.731-11.4Zm145.846 68.923q-6.384-6.385-6.384-11.654t6.604-11.874l43.945-43.945q5.835-5.835 11.489-6.22 5.654-.384 12.039 6 6.384 6.385 6.384 11.654 0 5.27-6.384 11.654l-45.385 45.385q-5.615 5.615-10.769 5.5-5.154-.116-11.539-6.5Zm52.923 130.03q0-6.723 4.6-11.453 4.6-4.731 11.4-4.731h168q6.8 0 11.4 4.547 4.601 4.547 4.601 11.269 0 6.723-4.601 11.453-4.6 4.731-11.4 4.731h-168q-6.8 0-11.4-4.547-4.6-4.547-4.6-11.269ZM480-400q-34.846 0-57.423-22.577Q400-445.154 400-480q0-34.846 22.577-57.423Q445.154-560 480-560q34.846 0 57.423 22.577Q560-514.846 560-480q0 34.846-22.577 57.423Q514.846-400 480-400Zm129.846 48.846q6.385-6.384 11.654-6.384t11.874 6.824l43.945 44.505q5.835 6.055 6.22 11.209.384 5.154-6 11.539-6.385 6.384-11.654 6.384-5.27 0-12.094-6.604l-44.505-43.945q-6.055-5.835-5.94-11.489.116-5.654 6.5-12.039Zm-259.692 0q6.384 6.385 5.884 11.654t-7.104 12.094l-43.945 44.505q-5.835 6.055-10.989 6.44-5.154.384-11.539-6-6.384-6.385-6.884-11.654-.5-5.27 6.324-11.874l44.505-43.945q6.055-5.835 11.709-6.72 5.654-.884 12.039 5.5Zm129.662 53.923q6.723 0 11.453 4.6 4.731 4.6 4.731 11.4v168q0 6.8-4.547 11.4-4.547 4.6-11.269 4.6-6.723 0-11.453-4.6-4.731-4.6-4.731-11.4v-168q0-6.8 4.547-11.4 4.547-4.6 11.269-4.6Z"/></svg>