<svg xmlns="http://www.w3.org/2000/svg" height="20" viewBox="0 -960 960 960" width="20"><path d="M188-232q-24.308 0-38.154-15.008Q136-262.016 136-284.04v-387.628q0-22.025 16.154-39.178Q168.307-728 192.615-728h151.028q11.272 0 21.969 4.231 10.696 4.23 19.388 12.923L463.846-632h304.539q18.692 0 30.115 8.692 11.423 8.693 19.577 23.308H451.769l-96-96H192.615q-10.769 0-17.692 6.923T168-671.385V-264q0-10.769 4.231-8.077 4.23 2.692 11.154 6.539l60.692-205.847q5.461-17.615 20.231-29.423 14.769-11.807 34.154-11.807h535.923q27.538 0 45.692 22.461 18.154 22.462 8.692 50.539l-50.846 171.231q-5.692 16.077-13.308 26.23Q817-232 798.154-232H188Zm28.077-32h568q8.461 0 15-4.615 6.538-4.616 8.846-13.077l51.308-167.385q3.846-12.308-3.846-21.923-7.693-9.615-20-9.615H298.462q-8.462 0-15 4.615-6.539 4.615-8.846 13.077L216.077-264ZM168-473.154V-696v222.846ZM216.077-264l58.539-198.923q2.307-8.462 3.846-13.077l1.538-4.615-2.692 9.615q-2.692 9.615-6.539 21.923l-49.307 167.385q-2.308 8.461-3.846 13.077L216.077-264Z"/></svg>