<svg xmlns="http://www.w3.org/2000/svg" height="20" viewBox="0 -960 960 960" width="20"><path d="M192.615-232Q169-232 152.5-248.5 136-265 136-288.615v-382.77Q136-695 152.5-711.5 169-728 192.615-728h574.77q24.315 0 40.465 16.5Q824-695 824-671.385v382.77Q824-265 807.85-248.5 791.7-232 767.385-232h-574.77ZM792-655.615 495.923-476.846q-3.754 2.231-7.577 3.731-3.822 1.5-8.346 1.5-5 0-7.846-1.5t-6.995-3.431L168-655.615v367q0 10.769 6.923 17.692T192.615-264h574.77q10.769 0 17.692-6.923T792-288.615v-367ZM480-517l298.692-179H182.308L480-517ZM168-668.52v7.46-26.055.884V-696v9.722-1.991 27.294-7.457V-264v-404.52Z"/></svg>