<svg xmlns="http://www.w3.org/2000/svg" height="20" viewBox="0 -960 960 960" width="20"><path d="M480-504.615q-43.5 0-73.75-30.25T376-608.615q0-43.501 30.25-73.751 30.25-30.25 73.75-30.25t73.75 30.25Q584-652.116 584-608.615q0 43.5-30.25 73.75T480-504.615ZM232-280.923v-16.308q0-13.769 9.423-27.346t26.808-24.5q49.615-28.154 103.6-43.231 53.984-15.077 107.961-15.077t108.17 15.077q54.192 15.077 103.807 43.231 17.385 9.923 26.808 24Q728-311 728-297.231v16.308q0 14.316-9.623 23.927-9.624 9.612-23.956 9.612H265.255q-14.332 0-23.794-9.612Q232-266.607 232-280.923Zm32 1.538h432v-17.846q0-7.484-6.102-14.411-6.102-6.928-17.206-12.358-41.384-24.923-90.836-38.154Q532.405-375.385 480-375.385q-52.405 0-101.856 13.231-49.452 13.231-90.836 38.154-11.154 7.077-17.231 13.493Q264-304.09 264-297.231v17.846Zm216.212-257.23q29.788 0 50.788-21.213 21-21.212 21-51 0-29.787-21.212-50.787-21.213-21-51-21-29.788 0-50.788 21.212-21 21.212-21 51t21.212 50.788q21.213 21 51 21Zm-.212-72Zm0 329.23Z"/></svg>