<svg xmlns="http://www.w3.org/2000/svg" height="20" viewBox="0 -960 960 960" width="20"><path d="M479.345-288.615q47.018 0 88.298-21t68.972-59.923q9.385-11.308 1.077-24.885Q629.385-408 613.308-408q-5.041 0-9.136 3.462-4.095 3.461-7.557 6.615-20.107 28.91-50.601 45.417Q515.52-336 479.222-336q-36.299 0-66.568-17.423t-51.269-46.5q-3.693-3.154-8.359-5.615-4.667-2.462-9.565-2.462-16.076 0-22.884 13.077T323.154-370q28.692 37.154 69.026 59.269 40.335 22.116 87.165 22.116Zm125.144-230.77q18.665 0 31.55-13.065 12.884-13.066 12.884-31.731t-13.065-31.55q-13.066-12.884-31.731-12.884t-31.55 13.065q-12.885 13.066-12.885 31.731t13.066 31.55q13.066 12.884 31.731 12.884Zm-248.616 0q18.665 0 31.55-13.065 12.885-13.066 12.885-31.731t-13.066-31.55q-13.066-12.884-31.731-12.884t-31.55 13.065q-12.884 13.066-12.884 31.731t13.065 31.55q13.066 12.884 31.731 12.884ZM480.409-136q-70.948 0-133.685-26.839-62.737-26.84-109.865-73.922-47.127-47.082-73.993-109.716Q136-409.111 136-480.325q0-71.214 26.839-133.451 26.84-62.237 73.922-109.365 47.082-47.127 109.716-73.993Q409.111-824 480.325-824q71.214 0 133.451 26.839 62.237 26.84 109.365 73.922 47.127 47.082 73.993 109.482Q824-551.357 824-480.409q0 70.948-26.839 133.685-26.84 62.737-73.922 109.865-47.082 47.127-109.482 73.993Q551.357-136 480.409-136ZM480-480Zm0 312q130 0 221-91t91-221q0-130-91-221t-221-91q-130 0-221 91t-91 221q0 130 91 221t221 91Z"/></svg>