<svg xmlns="http://www.w3.org/2000/svg" height="20" viewBox="0 -960 960 960" width="20"><path d="M815.385-585q20.077 0 38.346 18.269Q872-548.462 872-528.385v26.231q0 6.596-.731 11.99-.73 5.395-3.73 9.856L759.272-224.293q-8.195 19.37-31.156 29.832Q705.154-184 684.179-184l-403.256-1v-400l219.385-219.385q12.846-12.846 27.731-17.962 14.884-5.115 25.154 1.27 10.269 6.384 11.153 23.192.885 16.808-2.807 38.116L531.385-585h284Zm-502.462 13.077V-217h385.539q8.461 0 17.307-4.615 8.846-4.616 13.462-15.385L840-496v-32.385q0-10.769-6.923-17.692T815.385-553H495.692L537-793.462 312.923-571.923ZM144.615-185q-24.654 0-40.634-16.631Q88-218.261 88-241.615v-286.77q0-23.354 15.981-39.984Q119.961-585 144.615-585h136.308v32H144.615q-10.769 0-17.692 6.923T120-528.385v286.77q0 10.769 6.923 17.692T144.615-217h136.308v32H144.615Zm168.308-32v-354.923V-217Z"/></svg>