<svg xmlns="http://www.w3.org/2000/svg" height="20" viewBox="0 -960 960 960" width="20"><path d="M465.731-665.538 269.827-469.635q-4.519 4.135-10.519 4.962t-11.209-4.288q-5.907-4.731-5.272-10.539.634-5.808 5.572-10.732l213.009-212.71q4.142-4.135 8.666-6.501 4.525-2.365 10.086-2.365 5.56 0 10.085 2.365 4.524 2.366 8.64 6.097l212.923 212.923q5.231 5.615 5.615 10.673.385 5.058-5.137 9.789-5.594 5.115-10.933 5.115-5.34 0-10.122-5.115L494.654-665.538v412.755q0 6.097-4.213 10.363-4.212 4.266-10.23 4.266-6.019 0-10.25-4.266-4.23-4.266-4.23-10.363v-412.755Z"/></svg>