<svg xmlns="http://www.w3.org/2000/svg" height="20" viewBox="0 -960 960 960" width="20"><path d="M384.154-171.077h190.154q10 0 16.923-5.769 6.923-5.769 10-14.231l43.154-191.846H315.077l42.154 191.846q3.077 8.462 10 14.231t16.923 5.769Zm0 28.923q-20.2 0-35.735-12.057-15.535-12.058-19.65-31.712l-43.346-197h388l-43.73 197q-4.116 18.885-19.951 31.327-15.834 12.442-36.434 12.442H384.154ZM246.769-411.846h466.462q12.308 0 20-7.692 7.692-7.693 7.692-19.231v-85.577H219.077v85.577q0 11.538 8.077 19.231 8.077 7.692 19.615 7.692Zm232.462-254.308q.615-54.349 39.17-92.06 38.555-37.711 92.307-52.407 3.254-.648 6.568-.418 3.314.231 5.301 3.231 1.731 3.192 3.346 5.712 1.616 2.519.616 6.216-14.528 48.582-49.341 82.365-34.813 33.784-83.313 45.437v114.809h249.384q11.05 0 18.814 7.734 7.763 7.735 7.763 19.227v87.539q0 23.046-16.604 39.446t-40.011 16.4H246.769q-23.407 0-40.011-16.4-16.604-16.4-16.604-39.446v-87.539q0-11.492 7.734-19.227 7.735-7.734 19.227-7.734h247.846v-114.577q-48.884-11.885-83.769-45.654-34.885-33.769-49.417-81.637-.968-4.115.456-6.701 1.423-2.585 3.538-5.778 2.115-3.192 5.269-3.423 3.154-.23 6.808.385 53.159 14.729 91.964 52.44t39.421 92.06Z"/></svg>