<svg xmlns="http://www.w3.org/2000/svg" height="20" viewBox="0 -960 960 960" width="20"><path d="M812.308-581.308q18.731 0 36.135 17.404 17.403 17.404 17.403 36.135v25.128q0 6.499-.359 11.783-.359 5.285-3.487 9.32L754.924-229.894q-7.756 19.556-30.609 29.648-22.853 10.092-43.038 10.092l-397.277-1v-390.154l211.885-212.5q13.077-13.077 28.269-18.808 15.192-5.73 25.481.27 9.519 6.384 9.981 24.365.461 17.981-3.731 41.25l-27.577 165.423h284Zm-499.385 11.346v349.885h383.692q8.462 0 17.308-4.615 8.846-4.616 13.462-15.385l109.538-255.808v-31.884q0-10.77-6.923-17.693-6.923-6.923-17.692-6.923H496.923l40.577-239.23-224.577 221.653ZM148.308-191.154q-23.385 0-38.462-15.727-15.077-15.727-15.077-37.811v-283.077q0-22.085 15.077-37.812 15.077-15.727 38.462-15.727H284v28.923H148.308q-10.77 0-17.693 6.923-6.923 6.923-6.923 17.693v283.077q0 10.769 6.923 17.692t17.693 6.923H284v28.923H148.308Zm164.615-28.923v-349.885 349.885Z"/></svg>