<svg xmlns="http://www.w3.org/2000/svg" height="20" viewBox="0 -960 960 960" width="20"><path d="M258.001-287.692q54.649 0 106.439 12.538 51.791 12.539 101.406 38.692v-448.769q-44.692-29.923-97.771-44.192-53.078-14.269-105.897-14.269-35.818 0-63.234 3.307-27.416 3.308-58.944 17.06-9.231 3.077-13.077 8.846t-3.846 12.692v412.864q0 10.769 7.692 15.769T147.692-272q18.193-9.385 46.81-12.538 28.617-3.154 63.499-3.154Zm236.768 51.23q49.694-26.153 101.176-38.692 51.481-12.538 105.959-12.538 34.75 0 63.481 3.154 28.73 3.153 46.923 12.538 9.231 3.846 16.923-1.154 7.692-5 7.692-15.769v-412.923q0-6.923-3.846-12.308-3.846-5.384-13.077-9.231-34.5-10.076-63.416-15.192-28.916-5.115-66.43-5.115-51.385 0-101.539 15.269-50.153 15.269-93.846 43.325v448.636Zm-14.603 41.116q-6.82 0-11.506-4.303t-10.765-7.851q-45.126-24.5-94.341-37.884-49.216-13.385-100.708-13.385-19.97 0-40.87-2.135-20.899-2.134-41.683 1.401-31.909 11.465-59.024-.929-27.115-12.393-27.115-40.875v-397.77q0-17.962 10.615-31.904t25.692-21.327q30.579-14.423 63.822-17.365 33.242-2.943 66.563-2.943 58.387 0 110.905 13.981T480-712.462q55.731-32.192 108.249-46.173 52.518-13.981 110.905-13.981 29.558 0 59.182 2.443 29.624 2.442 57.203 10.865 20.077 8.385 35.692 23.327 15.615 14.942 15.615 36.904v397.768q0 25.484-24.653 37.608-24.654 12.124-54.101 4.659-25.015-2.765-48.578-1.246-23.563 1.519-47.36 1.519-50.118 0-98.021 12.885Q546.231-233 503.269-207.5q-6.307 4.577-11.513 8.366-5.206 3.788-11.59 3.788ZM294.461-496.385Zm264.308-119.194q0-8.652 4.396-13.9 4.395-5.248 14.489-7.636 26.654-9.577 56.581-15.193 29.928-5.615 61.15-5.615 15.689 0 30.938.889 15.249.889 31.908 3.726 7.745.775 12.449 6.566 4.705 5.791 4.705 13.69 0 8.881-6.635 16.313-6.635 7.431-15.712 6.964-15.269-1.879-29.07-2.744-13.801-.866-28.817-.866-29.897 0-57.735 3.654-27.839 3.654-55.063 12.713-8.314 1.826-15.949-4.039t-7.635-14.522Zm2 232.013q0-8.742 4.396-14.375 4.395-5.633 14.489-8.021 25.5-9.577 56.774-15.115 31.273-5.538 60.845-5.538 15.458 0 30.969.974 15.511.974 32.365 3.885 7.664 1.102 12.221 6.938 4.557 5.835 4.557 13.35 0 9.122-6.693 16.603-6.692 7.48-15.654 6.849-15.269-1.522-29.07-2.792-13.801-1.269-28.817-1.269-29.299 0-56.917 4.673-27.619 4.673-54.458 14.617-8.699 2.71-16.853-4.324-8.154-7.034-8.154-16.455Zm0-114.782q0-8.652 4.396-13.9 4.395-5.249 14.489-7.637 26.654-9.577 56.581-15.192 29.928-5.615 61.15-5.615 15.689 0 30.938.889 15.249.888 31.908 3.726 7.745.775 12.449 6.566 4.705 5.791 4.705 13.69 0 8.881-6.635 16.313-6.635 7.431-15.712 6.964-15.269-1.879-29.07-2.744-13.801-.866-28.817-.866-29.897 0-57.735 3.654-27.839 3.654-55.063 12.713-8.314 1.826-15.949-4.039t-7.635-14.522Z"/></svg>