<svg xmlns="http://www.w3.org/2000/svg" height="20" viewBox="0 -960 960 960" width="20"><path d="M665.538-465.731H252.783q-6.097 0-10.363-4.02-4.266-4.02-4.266-10.038 0-6.019 4.266-10.442t10.363-4.423h412.755L469.635-690.558q-4.135-4.134-4.962-10.134t4.288-11.594q4.731-5.522 10.539-4.887 5.808.634 10.732 5.187l212.71 213.009q4.135 4.527 6.501 9.051 2.365 4.525 2.365 10.086 0 5.56-2.365 10.085-2.366 4.524-6.097 8.255L490.423-248.577q-5.615 5.616-10.673 5.5-5.058-.115-9.789-6.022-5.115-5.209-5.115-10.548 0-5.34 5.115-10.122l195.577-195.962Z"/></svg>